<svg width="32" height="33" viewBox="0 0 32 33" fill="none" xmlns="http://www.w3.org/2000/svg">
<path d="M2 6.83333V2.96667C2 2.71029 2.10412 2.46442 2.28945 2.28313C2.47478 2.10184 2.72614 2 2.98824 2H28.3647C28.6268 2 28.8782 2.10184 29.0635 2.28313C29.2488 2.46442 29.3529 2.71029 29.3529 2.96667V6.83333M2 26.1667V30.0333C2 30.2897 2.10412 30.5356 2.28945 30.7169C2.47478 30.8982 2.72614 31 2.98824 31H28.3647C28.6268 31 28.8782 30.8982 29.0635 30.7169C29.2488 30.5356 29.3529 30.2897 29.3529 30.0333V26.1667" stroke="#75C94D" stroke-width="2.38235" stroke-linecap="round"/>
<path d="M8.77744 18.9824C8.77744 20.1982 8.45831 21.1402 7.82004 21.8083C7.18736 22.471 6.28034 22.8024 5.09898 22.8024H3.06621C2.47736 22.8024 2 22.325 2 21.7361V11.8582C2 11.2693 2.47736 10.792 3.06621 10.792H6.85495C7.39259 10.792 7.82843 11.2278 7.82843 11.7655C7.82843 12.3031 7.39259 12.739 6.85495 12.739H4.28434V15.4828H5.0066C6.24955 15.4828 7.18736 15.7758 7.82004 16.3618C8.45831 16.9478 8.77744 17.8213 8.77744 18.9824ZM4.28434 20.8636H4.9898C5.9808 20.8636 6.4763 20.2639 6.4763 19.0645C6.4763 18.4895 6.35033 18.076 6.09838 17.8241C5.85203 17.5666 5.43211 17.4379 4.83863 17.4379H4.28434V20.8636Z" fill="#75C94D"/>
<path d="M12.3635 16.5754L10.1327 12.2962C9.77568 11.6114 10.2726 10.792 11.0449 10.792C11.4402 10.792 11.8006 11.0186 11.9719 11.3749L14.4883 16.6082V11.8582C14.4883 11.2694 14.966 10.792 15.5549 10.792C16.1437 10.792 16.6215 11.2694 16.6215 11.8582V16.6082L19.1441 11.3776C19.3168 11.0196 19.6792 10.792 20.0767 10.792C20.8546 10.792 21.3547 11.6178 20.9943 12.3072L18.7714 16.5589L21.0826 21.2662C21.4305 21.9747 20.9148 22.8024 20.1256 22.8024H20.0489C19.6292 22.8024 19.2486 22.5562 19.0765 22.1735L16.6215 16.715V21.7361C16.6215 22.325 16.1437 22.8024 15.5549 22.8024C14.966 22.8024 14.4883 22.325 14.4883 21.7361V16.715L12.0574 22.1701C11.886 22.5547 11.5045 22.8024 11.0835 22.8024H11.0114C10.2217 22.8024 9.70604 21.9738 10.0548 21.2652L12.3635 16.5754Z" fill="#75C94D"/>
<path d="M23.6509 22.9667C23.3349 22.9667 23.0463 22.9445 22.7853 22.9002C22.408 22.8361 22.1728 22.4842 22.1728 22.1015V22.0464C22.1728 21.4219 22.8164 20.9868 23.4409 20.9868C24.1128 20.9868 24.6307 20.3762 24.9946 19.1549L22.3883 12.234C22.1257 11.5367 22.641 10.792 23.3861 10.792H23.47C23.9291 10.792 24.3366 11.0858 24.4816 11.5213L25.8008 15.4828C25.9296 15.9154 26.0108 16.2851 26.0444 16.5918H26.1116L26.2292 16.0332L26.3551 15.4828L27.47 11.5663C27.6005 11.1081 28.0191 10.792 28.4955 10.792H28.5361C29.2594 10.792 29.7728 11.4969 29.5509 12.1853L27.2621 19.2863C26.8254 20.6281 26.3243 21.5783 25.7588 22.1369C25.199 22.6901 24.4963 22.9667 23.6509 22.9667Z" fill="#75C94D"/>
</svg>
