<svg width="110" height="110" viewBox="0 0 110 110" fill="none" xmlns="http://www.w3.org/2000/svg">
<g filter="url(#filter0_d_1622_3136)">
<rect x="26" y="26" width="50" height="50" rx="25" fill="white"/>
</g>
<path d="M60.7197 39.05C60.8437 39.1625 60.9912 39.2518 61.1537 39.3127C61.3162 39.3736 61.4905 39.405 61.6665 39.405C61.8425 39.405 62.0168 39.3736 62.1793 39.3127C62.3418 39.2518 62.4893 39.1625 62.6133 39.05C62.7311 38.9334 62.8258 38.7994 62.8933 38.654C62.9616 38.5097 62.9979 38.3548 63 38.1979C63.001 38.04 62.9674 37.8834 62.901 37.7372C62.8346 37.591 62.7369 37.458 62.6133 37.3459L62.4132 37.2018C62.3389 37.1564 62.2582 37.1201 62.1732 37.0938C61.9304 37.0019 61.6627 36.9768 61.4041 37.0217C61.1454 37.0665 60.9073 37.1793 60.7197 37.3459C60.5962 37.458 60.4984 37.591 60.432 37.7372C60.3657 37.8834 60.332 38.04 60.333 38.1979C60.3351 38.3548 60.3714 38.5097 60.4397 38.654C60.5072 38.7994 60.602 38.9334 60.7197 39.05ZM61.6665 40.5982C61.3129 40.5982 60.9737 40.7246 60.7236 40.9497C60.4735 41.1747 60.333 41.48 60.333 41.7983V46.5987C60.333 46.917 60.4735 47.2222 60.7236 47.4473C60.9737 47.6724 61.3129 47.7988 61.6665 47.7988C62.0202 47.7988 62.3593 47.6724 62.6094 47.4473C62.8595 47.2222 63 46.917 63 46.5987V41.7983C63 41.48 62.8595 41.1747 62.6094 40.9497C62.3593 40.7246 62.0202 40.5982 61.6665 40.5982ZM61.7465 50.199C61.3966 50.1617 61.0445 50.2506 60.7671 50.4462C60.4898 50.6419 60.3097 50.9284 60.2664 51.2431C59.9835 53.2753 58.8856 55.1445 57.1789 56.4993C55.4722 57.8541 53.2744 58.601 50.9988 58.5998H43.5447L44.3981 57.8437C44.6465 57.6189 44.7859 57.3147 44.7859 56.9976C44.7859 56.6806 44.6465 56.3764 44.3981 56.1516C43.088 54.9773 42.1948 53.4794 41.832 51.8476C41.4691 50.2159 41.6529 48.524 42.36 46.9864C43.0671 45.4488 44.2656 44.1349 45.8036 43.2112C47.3416 42.2875 49.1498 41.7958 50.9988 41.7983C52.6338 41.796 54.24 42.1854 55.6526 42.9264C55.9534 43.0487 56.2939 43.0663 56.6083 42.9757C56.9227 42.8851 57.1886 42.6928 57.3545 42.436C57.5205 42.1791 57.5746 41.876 57.5066 41.5853C57.4385 41.2946 57.253 41.0369 56.986 40.8622C55.1714 39.9017 53.104 39.3962 50.9988 39.398C48.7418 39.4047 46.5327 39.984 44.6251 41.0695C42.7174 42.1549 41.1885 43.7025 40.2138 45.5346C39.2391 47.3666 38.8582 49.4089 39.1149 51.427C39.3715 53.4451 40.2552 55.3571 41.6645 56.9436L39.3843 58.9478C39.1993 59.1166 39.0739 59.3309 39.0241 59.5637C38.9742 59.7965 39.0021 60.0374 39.1043 60.2559C39.2043 60.4751 39.3742 60.6627 39.5925 60.7951C39.8108 60.9275 40.0678 60.9988 40.331 61H50.9988C53.923 61 56.7467 60.0391 58.9393 58.2977C61.132 56.5564 62.5427 54.1545 62.9066 51.5431C62.929 51.3863 62.9168 51.2269 62.8705 51.0743C62.8242 50.9218 62.7449 50.7789 62.6371 50.654C62.5293 50.5291 62.3951 50.4246 62.2423 50.3465C62.0894 50.2684 61.921 50.2183 61.7465 50.199Z" fill="#75C94D"/>
<defs>
<filter id="filter0_d_1622_3136" x="0" y="0" width="110" height="110" filterUnits="userSpaceOnUse" color-interpolation-filters="sRGB">
<feFlood flood-opacity="0" result="BackgroundImageFix"/>
<feColorMatrix in="SourceAlpha" type="matrix" values="0 0 0 0 0 0 0 0 0 0 0 0 0 0 0 0 0 0 127 0" result="hardAlpha"/>
<feOffset dx="4" dy="4"/>
<feGaussianBlur stdDeviation="15"/>
<feColorMatrix type="matrix" values="0 0 0 0 0 0 0 0 0 0 0 0 0 0 0 0 0 0 0.03 0"/>
<feBlend mode="normal" in2="BackgroundImageFix" result="effect1_dropShadow_1622_3136"/>
<feBlend mode="normal" in="SourceGraphic" in2="effect1_dropShadow_1622_3136" result="shape"/>
</filter>
</defs>
</svg>
