<svg width="68" height="68" viewBox="0 0 68 68" fill="none" xmlns="http://www.w3.org/2000/svg">
<g filter="url(#filter0_d_1622_3128)">
<rect x="16.0625" y="16.0625" width="31.875" height="31.875" rx="15.9375" fill="white" stroke="#75C94D" stroke-width="2.125"/>
</g>
<path d="M35.0149 21.4766C35.7212 21.4765 36.4151 21.6655 37.0269 22.0245C37.6386 22.3836 38.1465 22.9 38.4996 23.522C38.8528 24.1439 39.0386 24.8494 39.0385 25.5676C39.0383 26.2857 38.8522 26.9911 38.4989 27.6129L43.0611 27.6119V29.657H41.0495V39.8826C41.0495 40.1538 40.9436 40.4139 40.7549 40.6056C40.5663 40.7974 40.3105 40.9051 40.0437 40.9051H23.9514C23.6847 40.9051 23.4288 40.7974 23.2402 40.6056C23.0516 40.4139 22.9456 40.1538 22.9456 39.8826V29.657H20.9341V27.6119L25.4963 27.6129C24.9973 26.7344 24.8372 25.6988 25.0471 24.707C25.257 23.7152 25.8219 22.8382 26.6321 22.2461C27.4424 21.654 28.4401 21.3892 29.4316 21.503C30.4231 21.6169 31.3376 22.1013 31.9976 22.8621C32.3743 22.4259 32.8385 22.0766 33.3589 21.8376C33.8792 21.5986 34.4439 21.4755 35.0149 21.4766ZM30.9918 29.657H24.9572V38.86H30.9918V29.657ZM39.038 29.657H33.0033V38.86H39.038V29.657ZM28.9803 23.5217C28.4583 23.5193 27.9558 23.7233 27.5791 24.0906C27.2023 24.4579 26.9807 24.9597 26.9611 25.49C26.9415 26.0204 27.1255 26.5377 27.4741 26.9326C27.8227 27.3276 28.3087 27.5694 28.8294 27.6068L28.9803 27.6119H30.9918V25.5668C30.9918 25.0781 30.8197 24.6055 30.5066 24.2347C30.1935 23.8638 29.7602 23.6192 29.285 23.5452L29.1301 23.5268L28.9803 23.5217ZM35.0149 23.5217C34.5074 23.5215 34.0186 23.7164 33.6465 24.0672C33.2744 24.418 33.0464 24.8989 33.0084 25.4134L33.0033 25.5668V27.6119H35.0149C35.5224 27.6121 36.0112 27.4172 36.3833 27.0664C36.7554 26.7155 36.9833 26.2347 37.0214 25.7202L37.0264 25.5668C37.0264 25.0244 36.8145 24.5042 36.4373 24.1207C36.06 23.7371 35.5484 23.5217 35.0149 23.5217Z" fill="#75C94D"/>
<defs>
<filter id="filter0_d_1622_3128" x="0.968256" y="0.968256" width="66.3809" height="66.3809" filterUnits="userSpaceOnUse" color-interpolation-filters="sRGB">
<feFlood flood-opacity="0" result="BackgroundImageFix"/>
<feColorMatrix in="SourceAlpha" type="matrix" values="0 0 0 0 0 0 0 0 0 0 0 0 0 0 0 0 0 0 127 0" result="hardAlpha"/>
<feOffset dx="2.15873" dy="2.15873"/>
<feGaussianBlur stdDeviation="8.09524"/>
<feColorMatrix type="matrix" values="0 0 0 0 0 0 0 0 0 0 0 0 0 0 0 0 0 0 0.03 0"/>
<feBlend mode="normal" in2="BackgroundImageFix" result="effect1_dropShadow_1622_3128"/>
<feBlend mode="normal" in="SourceGraphic" in2="effect1_dropShadow_1622_3128" result="shape"/>
</filter>
</defs>
</svg>
