<svg width="83" height="15" viewBox="0 0 83 15" fill="none" xmlns="http://www.w3.org/2000/svg">
<g clip-path="url(#clip0_1622_3432)">
<path d="M75.7044 0L77.4342 5.18237H83.0317L78.5032 8.38525L80.2329 13.5676L75.7044 10.3647L71.1759 13.5676L72.9056 8.38525L68.3771 5.18237H73.9747L75.7044 0Z" fill="#75C94D"/>
</g>
<g clip-path="url(#clip1_1622_3432)">
<path d="M58.7044 0L60.4342 5.18237H66.0317L61.5032 8.38525L63.2329 13.5676L58.7044 10.3647L54.1759 13.5676L55.9056 8.38525L51.3771 5.18237H56.9747L58.7044 0Z" fill="#75C94D"/>
</g>
<g clip-path="url(#clip2_1622_3432)">
<path d="M24.7044 0L26.4342 5.18237H32.0317L27.5032 8.38525L29.2329 13.5676L24.7044 10.3647L20.1759 13.5676L21.9056 8.38525L17.3771 5.18237H22.9747L24.7044 0Z" fill="#75C94D"/>
</g>
<g clip-path="url(#clip3_1622_3432)">
<path d="M41.7044 0L43.4342 5.18237H49.0317L44.5032 8.38525L46.2329 13.5676L41.7044 10.3647L37.1759 13.5676L38.9056 8.38525L34.3771 5.18237H39.9747L41.7044 0Z" fill="#75C94D"/>
</g>
<g clip-path="url(#clip4_1622_3432)">
<path d="M7.7044 0L9.43415 5.18237H15.0317L10.5032 8.38525L12.2329 13.5676L7.7044 10.3647L3.17587 13.5676L4.90562 8.38525L0.37708 5.18237H5.97466L7.7044 0Z" fill="#75C94D"/>
</g>
<defs>
<clipPath id="clip0_1622_3432">
<rect width="15" height="15" fill="white" transform="translate(68)"/>
</clipPath>
<clipPath id="clip1_1622_3432">
<rect width="15" height="15" fill="white" transform="translate(51)"/>
</clipPath>
<clipPath id="clip2_1622_3432">
<rect width="15" height="15" fill="white" transform="translate(17)"/>
</clipPath>
<clipPath id="clip3_1622_3432">
<rect width="15" height="15" fill="white" transform="translate(34)"/>
</clipPath>
<clipPath id="clip4_1622_3432">
<rect width="15" height="15" fill="white"/>
</clipPath>
</defs>
</svg>
