<svg width="110" height="110" viewBox="0 0 110 110" fill="none" xmlns="http://www.w3.org/2000/svg">
<g filter="url(#filter0_d_1622_3148)">
<rect x="26" y="26" width="50" height="50" rx="25" fill="white"/>
</g>
<path d="M62.75 51.0833V59.8333C62.75 60.1428 62.6315 60.4395 62.4205 60.6583C62.2095 60.8771 61.9234 61 61.625 61H60.5C60.2016 61 59.9155 60.8771 59.7045 60.6583C59.4935 60.4395 59.375 60.1428 59.375 59.8333V58.6667H43.625V59.8333C43.625 60.1428 43.5065 60.4395 43.2955 60.6583C43.0845 60.8771 42.7984 61 42.5 61H41.375C41.0766 61 40.7905 60.8771 40.5795 60.6583C40.3685 60.4395 40.25 60.1428 40.25 59.8333V51.0833L38.8516 50.7217C38.6083 50.6585 38.3924 50.5128 38.2381 50.3077C38.0838 50.1027 38 49.8501 38 49.59V48.75C38 48.5953 38.0593 48.4469 38.1648 48.3375C38.2702 48.2281 38.4133 48.1667 38.5625 48.1667H40.6719L43.0771 41.5143C43.2379 41.0695 43.5258 40.6861 43.9024 40.4155C44.2789 40.1449 44.7261 39.9999 45.1843 40H57.8158C58.2739 39.9999 58.7211 40.1449 59.0976 40.4155C59.4742 40.6861 59.7621 41.0695 59.9229 41.5143L62.3281 48.1667H64.4375C64.5867 48.1667 64.7298 48.2281 64.8352 48.3375C64.9407 48.4469 65 48.5953 65 48.75V49.59C65 49.8501 64.9162 50.1027 64.7619 50.3077C64.6076 50.5128 64.3917 50.6585 64.1484 50.7217L62.75 51.0833ZM42.5 52.8333V55.1667C42.5 55.4761 42.6185 55.7728 42.8295 55.9916C43.0405 56.2104 43.3266 56.3333 43.625 56.3333H47.2756C47.3728 56.3332 47.4682 56.3069 47.5527 56.2572C47.6371 56.2074 47.7077 56.1358 47.7575 56.0493C47.8074 55.9629 47.8348 55.8645 47.8371 55.7638C47.8394 55.6631 47.8165 55.5635 47.7706 55.4747C46.865 53.713 45.1077 52.8333 42.5 52.8333ZM60.5 52.8333C57.8934 52.8333 56.1361 53.7142 55.2283 55.4747C55.1824 55.5636 55.1595 55.6633 55.1618 55.7641C55.1642 55.8649 55.1917 55.9633 55.2416 56.0498C55.2916 56.1363 55.3624 56.2079 55.447 56.2576C55.5316 56.3073 55.6271 56.3334 55.7244 56.3333H59.375C59.6734 56.3333 59.9595 56.2104 60.1705 55.9916C60.3815 55.7728 60.5 55.4761 60.5 55.1667V52.8333ZM44.75 42.3333L42.9939 47.798C42.9376 47.9733 42.9222 48.1599 42.9491 48.3426C42.976 48.5252 43.0443 48.6987 43.1484 48.8486C43.2525 48.9985 43.3895 49.1206 43.5481 49.2049C43.7066 49.2892 43.8822 49.3332 44.0604 49.3333H58.9396C59.1178 49.3332 59.2934 49.2892 59.4519 49.2049C59.6105 49.1206 59.7475 48.9985 59.8516 48.8486C59.9557 48.6987 60.024 48.5252 60.0509 48.3426C60.0778 48.1599 60.0624 47.9733 60.0061 47.798L58.25 42.3333H44.75Z" fill="#75C94D"/>
<defs>
<filter id="filter0_d_1622_3148" x="0" y="0" width="110" height="110" filterUnits="userSpaceOnUse" color-interpolation-filters="sRGB">
<feFlood flood-opacity="0" result="BackgroundImageFix"/>
<feColorMatrix in="SourceAlpha" type="matrix" values="0 0 0 0 0 0 0 0 0 0 0 0 0 0 0 0 0 0 127 0" result="hardAlpha"/>
<feOffset dx="4" dy="4"/>
<feGaussianBlur stdDeviation="15"/>
<feColorMatrix type="matrix" values="0 0 0 0 0 0 0 0 0 0 0 0 0 0 0 0 0 0 0.03 0"/>
<feBlend mode="normal" in2="BackgroundImageFix" result="effect1_dropShadow_1622_3148"/>
<feBlend mode="normal" in="SourceGraphic" in2="effect1_dropShadow_1622_3148" result="shape"/>
</filter>
</defs>
</svg>
