<svg width="110" height="110" viewBox="0 0 110 110" fill="none" xmlns="http://www.w3.org/2000/svg">
<g filter="url(#filter0_d_1622_3154)">
<rect x="26" y="26" width="50" height="50" rx="25" fill="white"/>
</g>
<path d="M41.6667 50.5C41.6667 50.9118 42.2813 51.6289 43.7067 52.3329C45.552 53.2434 48.1693 53.7895 51 53.7895C53.8307 53.7895 56.448 53.2434 58.2933 52.3329C59.7187 51.6289 60.3333 50.9118 60.3333 50.5V47.6434C58.1333 48.9855 54.7693 49.8421 51 49.8421C47.2307 49.8421 43.8667 48.9842 41.6667 47.6434V50.5ZM60.3333 54.2224C58.1333 55.5645 54.7693 56.4211 51 56.4211C47.2307 56.4211 43.8667 55.5632 41.6667 54.2224V57.0789C41.6667 57.4908 42.2813 58.2079 43.7067 58.9118C45.552 59.8224 48.1693 60.3684 51 60.3684C53.8307 60.3684 56.448 59.8224 58.2933 58.9118C59.7187 58.2079 60.3333 57.4908 60.3333 57.0789V54.2224ZM39 57.0789V43.9211C39 40.6513 44.3733 38 51 38C57.6267 38 63 40.6513 63 43.9211V57.0789C63 60.3487 57.6267 63 51 63C44.3733 63 39 60.3487 39 57.0789ZM51 47.2105C53.8307 47.2105 56.448 46.6645 58.2933 45.7539C59.7187 45.05 60.3333 44.3329 60.3333 43.9211C60.3333 43.5092 59.7187 42.7921 58.2933 42.0882C56.448 41.1776 53.8307 40.6316 51 40.6316C48.1693 40.6316 45.552 41.1776 43.7067 42.0882C42.2813 42.7921 41.6667 43.5092 41.6667 43.9211C41.6667 44.3329 42.2813 45.05 43.7067 45.7539C45.552 46.6645 48.1693 47.2105 51 47.2105Z" fill="#75C94D"/>
<defs>
<filter id="filter0_d_1622_3154" x="0" y="0" width="110" height="110" filterUnits="userSpaceOnUse" color-interpolation-filters="sRGB">
<feFlood flood-opacity="0" result="BackgroundImageFix"/>
<feColorMatrix in="SourceAlpha" type="matrix" values="0 0 0 0 0 0 0 0 0 0 0 0 0 0 0 0 0 0 127 0" result="hardAlpha"/>
<feOffset dx="4" dy="4"/>
<feGaussianBlur stdDeviation="15"/>
<feColorMatrix type="matrix" values="0 0 0 0 0 0 0 0 0 0 0 0 0 0 0 0 0 0 0.03 0"/>
<feBlend mode="normal" in2="BackgroundImageFix" result="effect1_dropShadow_1622_3154"/>
<feBlend mode="normal" in="SourceGraphic" in2="effect1_dropShadow_1622_3154" result="shape"/>
</filter>
</defs>
</svg>
