<svg width="110" height="110" viewBox="0 0 110 110" fill="none" xmlns="http://www.w3.org/2000/svg">
<g filter="url(#filter0_d_1622_3142)">
<rect x="26" y="26" width="50" height="50" rx="25" fill="white"/>
</g>
<path d="M41.4961 39.1504H47.6934C48.0049 39.1504 48.3053 39.2671 48.5342 39.4785C48.7346 39.6636 48.8675 39.9092 48.9141 40.1758L48.9287 40.291C49.1057 42.5437 49.7572 44.7339 50.8408 46.7168C50.9862 46.9825 51.0295 47.2926 50.9619 47.5879C50.8943 47.8832 50.7202 48.1433 50.4736 48.3193L48.7549 49.5479L48.6445 49.626L48.7109 49.7432C50.0275 52.0561 51.9439 53.9725 54.2568 55.2891L54.374 55.3555L54.4521 55.2451L55.6807 53.5264C55.8567 53.2798 56.1168 53.1057 56.4121 53.0381C56.7074 52.9705 57.0175 53.0138 57.2832 53.1592C59.1421 54.1751 61.1832 54.8118 63.2871 55.0332L63.709 55.0713C64.0197 55.0959 64.31 55.2369 64.5215 55.4658C64.7329 55.6947 64.8496 55.9951 64.8496 56.3066V62.5039C64.8497 62.8106 64.7368 63.1072 64.5312 63.335C64.3257 63.5627 64.0424 63.706 63.7373 63.7373C63.0034 63.8131 62.2661 63.85 61.5283 63.8496H61.5273C49.7216 63.8494 40.1506 54.2784 40.1504 42.4727C40.1504 41.9159 40.1714 41.3619 40.2139 40.8115L40.2627 40.2627C40.294 39.9576 40.4373 39.6743 40.665 39.4688C40.8928 39.2632 41.1894 39.1503 41.4961 39.1504ZM62.3721 57.416L62.2441 57.3975C60.4961 57.138 58.7939 56.6286 57.1904 55.8857L57.0781 55.834L57.0059 55.9346L55.1895 58.4766C54.4755 58.1935 53.78 57.8645 53.1104 57.4883L53.0312 57.4434C50.3305 55.9063 48.0937 53.6695 46.5566 50.9688L46.5107 50.8887H46.5117C46.1353 50.2187 45.8056 49.5239 45.5225 48.8096L48.0654 46.9941L48.166 46.9219L48.1143 46.8096C47.3714 45.2061 46.862 43.5039 46.6025 41.7559L46.584 41.6279H42.6475L42.6416 41.7725C42.6332 42.0048 42.6289 42.239 42.6289 42.4727C42.6278 52.9107 51.0893 61.3718 61.5273 61.3721C61.7611 61.3721 61.9956 61.3682 62.2285 61.3584L62.3721 61.3525V57.416Z" fill="#75C94D" stroke="white" stroke-width="0.3"/>
<defs>
<filter id="filter0_d_1622_3142" x="0" y="0" width="110" height="110" filterUnits="userSpaceOnUse" color-interpolation-filters="sRGB">
<feFlood flood-opacity="0" result="BackgroundImageFix"/>
<feColorMatrix in="SourceAlpha" type="matrix" values="0 0 0 0 0 0 0 0 0 0 0 0 0 0 0 0 0 0 127 0" result="hardAlpha"/>
<feOffset dx="4" dy="4"/>
<feGaussianBlur stdDeviation="15"/>
<feColorMatrix type="matrix" values="0 0 0 0 0 0 0 0 0 0 0 0 0 0 0 0 0 0 0.03 0"/>
<feBlend mode="normal" in2="BackgroundImageFix" result="effect1_dropShadow_1622_3142"/>
<feBlend mode="normal" in="SourceGraphic" in2="effect1_dropShadow_1622_3142" result="shape"/>
</filter>
</defs>
</svg>
