<svg width="53" height="53" viewBox="0 0 53 53" fill="none" xmlns="http://www.w3.org/2000/svg">
<path d="M2 14.25H51M14.25 2V14.25M18.8438 34.1562L23.4375 38.75L32.625 29.5625M2 5.0625C2 4.25027 2.32266 3.47132 2.89699 2.89699C3.47132 2.32266 4.25027 2 5.0625 2H47.9375C48.7497 2 49.5287 2.32266 50.103 2.89699C50.6773 3.47132 51 4.25027 51 5.0625V47.9375C51 48.7497 50.6773 49.5287 50.103 50.103C49.5287 50.6773 48.7497 51 47.9375 51H5.0625C4.25027 51 3.47132 50.6773 2.89699 50.103C2.32266 49.5287 2 48.7497 2 47.9375V5.0625Z" stroke="#121214" stroke-width="2.5" stroke-linecap="round" stroke-linejoin="round"/>
</svg>
