<svg width="239" height="21" viewBox="0 0 239 21" fill="none" xmlns="http://www.w3.org/2000/svg">
<path fill-rule="evenodd" clip-rule="evenodd" d="M5.30335 2.32946C6.3063 1.91402 7.38127 1.7002 8.46686 1.7002C9.55246 1.7002 10.6274 1.91402 11.6304 2.32946C12.6333 2.7449 13.5446 3.35382 14.3123 4.12145C15.0799 4.88908 15.6888 5.80039 16.1043 6.80335C16.5197 7.8063 16.7335 8.88127 16.7335 9.96686C16.7335 11.0525 16.5197 12.1274 16.1043 13.1304C15.7912 13.8861 15.3684 14.5898 14.8505 15.2192L17.5659 17.9345C17.8783 18.2469 17.8783 18.7535 17.5659 19.0659C17.2535 19.3783 16.7469 19.3783 16.4345 19.0659L13.7192 16.3505C13.0898 16.8684 12.3861 17.2912 11.6304 17.6043C10.6274 18.0197 9.55246 18.2335 8.46686 18.2335C7.38127 18.2335 6.3063 18.0197 5.30335 17.6043C4.30039 17.1888 3.38908 16.5799 2.62145 15.8123C1.85382 15.0446 1.2449 14.1333 0.829458 13.1304C0.414019 12.1274 0.200195 11.0525 0.200195 9.96686C0.200195 8.88127 0.414019 7.8063 0.829458 6.80335C1.2449 5.80039 1.85381 4.88908 2.62145 4.12145C3.38908 3.35381 4.30039 2.7449 5.30335 2.32946ZM8.46686 3.3002C7.59138 3.3002 6.72448 3.47263 5.91564 3.80766C5.1068 4.1427 4.37187 4.63376 3.75282 5.25282C3.13376 5.87187 2.6427 6.6068 2.30767 7.41564C1.97263 8.22448 1.8002 9.09138 1.8002 9.96686C1.8002 10.8423 1.97263 11.7092 2.30767 12.5181C2.6427 13.3269 3.13376 14.0619 3.75282 14.6809C4.37187 15.3 5.1068 15.791 5.91564 16.1261C6.72448 16.4611 7.59138 16.6335 8.46686 16.6335C9.34234 16.6335 10.2092 16.4611 11.0181 16.1261C11.8269 15.791 12.5618 15.3 13.1809 14.6809C13.8 14.0618 14.291 13.3269 14.6261 12.5181C14.9611 11.7092 15.1335 10.8423 15.1335 9.96686C15.1335 9.09138 14.9611 8.22448 14.6261 7.41564C14.291 6.6068 13.8 5.87187 13.1809 5.25282C12.5619 4.63376 11.8269 4.1427 11.0181 3.80766C10.2092 3.47263 9.34234 3.3002 8.46686 3.3002Z" fill="white"/>
<path fill-rule="evenodd" clip-rule="evenodd" d="M59.0998 1.7002C59.4032 1.7002 59.6804 1.87174 59.8158 2.14319L62.2554 7.03547L67.7134 7.81834C68.0159 7.86173 68.2673 8.0737 68.3612 8.36456C68.455 8.65542 68.375 8.97434 68.1549 9.18638L64.2046 12.9919L65.1357 18.3636C65.1876 18.6634 65.065 18.9667 64.8193 19.1462C64.5736 19.3257 64.2473 19.3502 63.9775 19.2095L59.1054 16.6686L54.2215 19.2099C53.9517 19.3503 53.6256 19.3255 53.3801 19.146C53.1345 18.9665 53.012 18.6633 53.064 18.3636L53.995 12.9919L50.0448 9.18638C49.8247 8.97434 49.7446 8.65542 49.8385 8.36456C49.9323 8.0737 50.1837 7.86173 50.4862 7.81834L55.9443 7.03547L58.3839 2.14319C58.5193 1.87174 58.7965 1.7002 59.0998 1.7002ZM59.0998 4.29288L57.189 8.12483C57.0718 8.35988 56.8466 8.52242 56.5866 8.55972L52.3337 9.16973L55.4108 12.1341C55.602 12.3183 55.6894 12.5853 55.644 12.8469L54.9165 17.0446L58.7365 15.0569C58.9682 14.9363 59.2441 14.9365 59.4757 15.0572L63.2829 17.0428L62.5556 12.8469C62.5103 12.5853 62.5977 12.3183 62.7888 12.1341L65.866 9.16973L61.613 8.55972C61.353 8.52242 61.1279 8.35988 61.0107 8.12483L59.0998 4.29288Z" fill="white"/>
<path fill-rule="evenodd" clip-rule="evenodd" d="M103.551 2.96727C104.39 2.15329 105.524 1.7002 106.7 1.7002C107.877 1.7002 109.011 2.15329 109.85 2.96727C110.69 3.78207 111.167 4.8925 111.167 6.05575C111.167 7.219 110.69 8.32943 109.85 9.14423C109.011 9.95821 107.877 10.4113 106.7 10.4113C105.524 10.4113 104.39 9.95821 103.551 9.14423C102.71 8.32943 102.234 7.219 102.234 6.05575C102.234 4.8925 102.71 3.78207 103.551 2.96727ZM106.7 3.3002C105.932 3.3002 105.2 3.5963 104.665 4.11591C104.13 4.63471 103.834 5.33301 103.834 6.05575C103.834 6.77849 104.13 7.47679 104.665 7.99559C105.2 8.5152 105.932 8.81131 106.7 8.81131C107.468 8.81131 108.2 8.5152 108.736 7.99559C109.271 7.47679 109.567 6.77849 109.567 6.05575C109.567 5.33301 109.271 4.63471 108.736 4.11591C108.2 3.5963 107.468 3.3002 106.7 3.3002ZM104.867 13.9669C104.099 13.9669 103.367 14.263 102.831 14.7826C102.296 15.3014 102 15.9997 102 16.7224V18.5002C102 18.942 101.642 19.3002 101.2 19.3002C100.759 19.3002 100.4 18.942 100.4 18.5002V16.7224C100.4 15.5592 100.877 14.4487 101.717 13.6339C102.557 12.82 103.69 12.3669 104.867 12.3669H108.534C109.711 12.3669 110.844 12.82 111.683 13.6339C112.524 14.4487 113 15.5592 113 16.7224V18.5002C113 18.942 112.642 19.3002 112.2 19.3002C111.759 19.3002 111.4 18.942 111.4 18.5002V16.7224C111.4 15.9997 111.105 15.3014 110.57 14.7826C110.034 14.263 109.302 13.9669 108.534 13.9669H104.867Z" fill="white"/>
<circle cx="229.769" cy="10.5" r="9" fill="#49D0FF"/>
<path d="M232.64 6.58V7.012L229.016 14.5H227.252L230.468 8.044H227.072V6.58H232.64Z" fill="white"/>
<path fill-rule="evenodd" clip-rule="evenodd" d="M153.299 2.3002C152.739 2.3002 152.199 2.52753 151.797 2.9382C151.395 3.34947 151.166 3.91101 151.166 4.5002V5.7002H155.433V4.5002C155.433 3.91101 155.204 3.34947 154.802 2.9382C154.4 2.52753 153.86 2.3002 153.299 2.3002ZM157.033 5.7002V4.5002C157.033 3.49808 156.644 2.5335 155.946 1.81955C155.247 1.105 154.296 0.700195 153.299 0.700195C152.303 0.700195 151.352 1.105 150.653 1.81955C149.955 2.5335 149.566 3.49808 149.566 4.5002V5.7002H147.756M149.566 7.3002H147.756C147.592 7.30018 147.43 7.33636 147.279 7.40693C147.129 7.47754 146.994 7.58122 146.884 7.71202C146.775 7.84288 146.693 7.99763 146.646 8.16604C146.599 8.33444 146.588 8.51161 146.614 8.6851C146.614 8.68506 146.614 8.68514 146.614 8.6851L147.841 16.8371C147.92 17.361 148.179 17.8353 148.567 18.1757C148.954 18.5156 149.445 18.7002 149.949 18.7002C149.949 18.7002 149.949 18.7002 149.949 18.7002H156.65C157.154 18.7003 157.645 18.5159 158.033 18.1759C158.421 17.8355 158.68 17.3613 158.759 16.8372L159.986 8.68523C160.012 8.51169 160.001 8.33448 159.954 8.16604C159.907 7.99763 159.825 7.84288 159.716 7.71202C159.606 7.58122 159.471 7.47754 159.321 7.40693C159.17 7.33636 159.008 7.30018 158.844 7.3002H157.033V9.5002C157.033 9.94202 156.675 10.3002 156.233 10.3002C155.791 10.3002 155.433 9.94202 155.433 9.5002V7.3002H151.166V9.5002C151.166 9.94202 150.808 10.3002 150.366 10.3002C149.924 10.3002 149.566 9.94202 149.566 9.5002V7.3002ZM157.033 5.7002H158.844C158.844 5.7002 158.844 5.7002 158.844 5.7002C159.244 5.70016 159.639 5.78863 160.001 5.95886C160.363 6.12908 160.684 6.37669 160.941 6.68357C161.199 6.99041 161.387 7.34938 161.495 7.73552C161.603 8.12163 161.628 8.52666 161.568 8.92316L160.341 17.0752C160.341 17.0752 160.341 17.0751 160.341 17.0752C160.207 17.9679 159.764 18.7858 159.088 19.3787C158.412 19.972 157.547 20.3004 156.65 20.3002C156.65 20.3002 156.65 20.3002 156.65 20.3002H149.949C149.052 20.3002 148.188 19.9716 147.512 19.3783C146.836 18.7854 146.393 17.9678 146.259 17.0753C146.259 17.0752 146.259 17.0753 146.259 17.0753L145.032 8.92329C144.972 8.52679 144.997 8.12163 145.105 7.73552C145.213 7.34938 145.401 6.99041 145.659 6.68357C145.916 6.37669 146.237 6.12908 146.599 5.95886C146.961 5.78863 147.356 5.70016 147.756 5.7002" fill="white"/>
<path d="M171.925 6.92V15.5H170.17V9L168.545 9.52L168.129 7.973L171.34 6.92H171.925ZM177.143 6.92V15.5H175.388V9L173.763 9.52L173.347 7.973L176.558 6.92H177.143ZM189.007 13.212C189.007 13.706 188.868 14.1393 188.591 14.512C188.322 14.876 187.945 15.1577 187.46 15.357C186.975 15.5563 186.42 15.656 185.796 15.656C185.172 15.656 184.613 15.5563 184.119 15.357C183.634 15.1577 183.252 14.876 182.975 14.512C182.706 14.1393 182.572 13.706 182.572 13.212C182.572 12.224 183.135 11.5047 184.262 11.054C183.395 10.5513 182.962 9.87967 182.962 9.039C182.962 8.32833 183.226 7.77367 183.755 7.375C184.292 6.96767 184.973 6.764 185.796 6.764C186.619 6.764 187.295 6.96767 187.824 7.375C188.361 7.77367 188.63 8.32833 188.63 9.039C188.63 9.88833 188.201 10.56 187.343 11.054C188.452 11.5133 189.007 12.2327 189.007 13.212ZM185.796 8.181C185.449 8.181 185.163 8.26333 184.938 8.428C184.713 8.59267 184.6 8.82233 184.6 9.117C184.6 9.377 184.695 9.59367 184.886 9.767C185.085 9.94033 185.389 10.1223 185.796 10.313C186.203 10.1223 186.502 9.94033 186.693 9.767C186.892 9.59367 186.992 9.37267 186.992 9.104C186.992 8.818 186.879 8.59267 186.654 8.428C186.429 8.26333 186.143 8.181 185.796 8.181ZM185.796 14.226C186.273 14.226 186.637 14.1263 186.888 13.927C187.139 13.7277 187.265 13.4677 187.265 13.147C187.265 12.8177 187.144 12.5533 186.901 12.354C186.658 12.1547 186.29 11.9683 185.796 11.795C185.302 11.977 184.934 12.1677 184.691 12.367C184.448 12.5663 184.327 12.8263 184.327 13.147C184.327 13.4677 184.453 13.7277 184.704 13.927C184.955 14.1263 185.319 14.226 185.796 14.226ZM193.27 6.764C193.833 6.764 194.353 6.89833 194.83 7.167C195.315 7.427 195.701 7.791 195.987 8.259C196.281 8.727 196.429 9.25567 196.429 9.845C196.429 10.3217 196.333 10.7463 196.143 11.119C195.961 11.4917 195.662 11.964 195.246 12.536L193.114 15.5H191.034L193.023 12.744H192.958C192.481 12.744 192.022 12.6227 191.58 12.38C191.146 12.1287 190.795 11.782 190.527 11.34C190.258 10.8893 190.124 10.3867 190.124 9.832C190.124 9.25133 190.267 8.727 190.553 8.259C190.839 7.791 191.224 7.427 191.71 7.167C192.195 6.89833 192.715 6.764 193.27 6.764ZM193.27 11.275C193.668 11.275 194.002 11.1363 194.271 10.859C194.548 10.5817 194.687 10.2393 194.687 9.832C194.687 9.42467 194.548 9.08233 194.271 8.805C194.002 8.519 193.668 8.376 193.27 8.376C192.88 8.376 192.546 8.51467 192.269 8.792C191.991 9.06933 191.853 9.416 191.853 9.832C191.853 10.2393 191.991 10.5817 192.269 10.859C192.546 11.1363 192.88 11.275 193.27 11.275ZM200.57 6.764C201.133 6.764 201.653 6.89833 202.13 7.167C202.615 7.427 203.001 7.791 203.287 8.259C203.581 8.727 203.729 9.25567 203.729 9.845C203.729 10.3217 203.633 10.7463 203.443 11.119C203.261 11.4917 202.962 11.964 202.546 12.536L200.414 15.5H198.334L200.323 12.744H200.258C199.781 12.744 199.322 12.6227 198.88 12.38C198.446 12.1287 198.095 11.782 197.827 11.34C197.558 10.8893 197.424 10.3867 197.424 9.832C197.424 9.25133 197.567 8.727 197.853 8.259C198.139 7.791 198.524 7.427 199.01 7.167C199.495 6.89833 200.015 6.764 200.57 6.764ZM200.57 11.275C200.968 11.275 201.302 11.1363 201.571 10.859C201.848 10.5817 201.987 10.2393 201.987 9.832C201.987 9.42467 201.848 9.08233 201.571 8.805C201.302 8.519 200.968 8.376 200.57 8.376C200.18 8.376 199.846 8.51467 199.569 8.792C199.291 9.06933 199.153 9.416 199.153 9.832C199.153 10.2393 199.291 10.5817 199.569 10.859C199.846 11.1363 200.18 11.275 200.57 11.275ZM209.082 14.161H208.068V12.757H209.082V11.938H208.068V10.456H209.082V6.92H212.371C213.186 6.92 213.849 7.14533 214.36 7.596C214.88 8.04667 215.14 8.65767 215.14 9.429C215.14 9.94033 215.019 10.3867 214.776 10.768C214.542 11.1493 214.213 11.4397 213.788 11.639C213.372 11.8383 212.9 11.938 212.371 11.938H210.837V12.757H214.113V14.161H210.837V15.5H209.082V14.161ZM212.254 10.456C212.592 10.456 212.865 10.3693 213.073 10.196C213.281 10.014 213.385 9.76267 213.385 9.442C213.385 9.12133 213.281 8.87 213.073 8.688C212.865 8.49733 212.592 8.402 212.254 8.402H210.837V10.456H212.254Z" fill="#8C8F96"/>
</svg>
