<svg width="69" height="30" viewBox="0 0 69 30" fill="none" xmlns="http://www.w3.org/2000/svg">
<path d="M15 5.16808e-08C12.0333 5.16808e-08 9.13319 0.879735 6.66645 2.52796C4.19971 4.17618 2.27713 6.51885 1.14181 9.25975C0.00649929 12.0006 -0.290551 15.0166 0.288227 17.9264C0.867006 20.8361 2.29562 23.5088 4.3934 25.6066C6.49119 27.7044 9.16393 29.133 12.0736 29.7118C14.9834 30.2906 17.9994 29.9935 20.7403 28.8582C23.4811 27.7229 25.8238 25.8003 27.472 23.3335C29.1203 20.8668 30 17.9667 30 15C30.0002 13.0301 29.6123 11.0795 28.8585 9.25955C28.1048 7.4396 26.9999 5.78594 25.607 4.39303C24.2141 3.00012 22.5604 1.89524 20.7404 1.14147C18.9205 0.387712 16.9699 -0.000163468 15 5.16808e-08ZM19.7693 22.7287C19.7131 22.8687 19.6277 22.9951 19.5187 23.0993C19.4097 23.2036 19.2797 23.2834 19.1374 23.3333C18.9951 23.3833 18.8437 23.4022 18.6935 23.3888C18.5432 23.3755 18.3976 23.3302 18.2663 23.2559L14.1943 20.0919L11.5808 22.503C11.5201 22.5478 11.4492 22.5766 11.3745 22.5868C11.2998 22.597 11.2237 22.5883 11.1533 22.5614L11.6543 18.0787L11.6703 18.0914L11.6806 18.0029C11.6806 18.0029 19.0081 11.3317 19.3066 11.0474C19.6088 10.7639 19.5091 10.7024 19.5091 10.7024C19.5263 10.3566 18.9668 10.7024 18.9668 10.7024L9.258 16.9485L5.21477 15.5715C5.21477 15.5715 4.59377 15.3487 4.53527 14.859C4.47377 14.373 5.23501 14.109 5.23501 14.109L21.3105 7.72273C21.3105 7.72273 22.632 7.13395 22.632 8.109L19.7693 22.7287Z" fill="#22A6E6"/>
<path d="M19.7688 22.7288C19.7126 22.8688 19.6272 22.9952 19.5182 23.0994C19.4093 23.2037 19.2792 23.2835 19.1369 23.3334C18.9946 23.3834 18.8432 23.4023 18.693 23.3889C18.5427 23.3756 18.3971 23.3303 18.2658 23.256L14.1938 20.092L11.5803 22.5031C11.5197 22.5479 11.4487 22.5767 11.374 22.5869C11.2993 22.5971 11.2232 22.5884 11.1528 22.5615L11.6538 18.0788L11.6698 18.0915L11.6801 18.003C11.6801 18.003 19.0076 11.3318 19.3061 11.0475C19.6083 10.764 19.5086 10.7025 19.5086 10.7025C19.5258 10.3567 18.9663 10.7025 18.9663 10.7025L9.25752 16.9486L5.21429 15.5716C5.21429 15.5716 4.59329 15.3488 4.53479 14.8591C4.47329 14.3731 5.23452 14.1091 5.23452 14.1091L21.31 7.72282C21.31 7.72282 22.6315 7.13404 22.6315 8.10909L19.7688 22.7288Z" fill="white"/>
<path d="M54.0038 0H53.9963C45.7256 0 39 6.72749 39 15C38.9949 18.1594 39.995 21.2385 41.8556 23.7918L39.9863 29.3643L45.7519 27.5212C48.1976 29.1438 51.0688 30.0063 54.0038 30C62.2744 30 69 23.2706 69 15C69 6.72937 62.2744 0 54.0038 0ZM62.7319 21.1819C62.37 22.2037 60.9338 23.0512 59.7881 23.2987C59.0044 23.4656 57.9806 23.5987 54.5344 22.17C50.1263 20.3437 47.2875 15.8644 47.0663 15.5737C46.8544 15.2831 45.285 13.2019 45.285 11.0494C45.285 8.89687 46.3781 7.84874 46.8188 7.39874C47.1806 7.02937 47.7788 6.86062 48.3525 6.86062C48.5381 6.86062 48.705 6.86999 48.855 6.87749C49.2956 6.89624 49.5169 6.92249 49.8075 7.61812C50.1694 8.48999 51.0506 10.6425 51.1556 10.8637C51.2625 11.085 51.3694 11.385 51.2194 11.6756C51.0788 11.9756 50.955 12.1087 50.7338 12.3637C50.5125 12.6187 50.3025 12.8137 50.0813 13.0875C49.8788 13.3256 49.65 13.5806 49.905 14.0212C50.16 14.4525 51.0413 15.8906 52.3388 17.0456C54.0131 18.5362 55.3706 19.0125 55.8563 19.215C56.2181 19.365 56.6494 19.3294 56.9138 19.0481C57.2494 18.6862 57.6638 18.0862 58.0856 17.4956C58.3856 17.0719 58.7644 17.0194 59.1619 17.1694C59.5669 17.31 61.71 18.3694 62.1506 18.5887C62.5913 18.81 62.8819 18.915 62.9888 19.1006C63.0938 19.2862 63.0938 20.1581 62.7319 21.1819Z" fill="#55CD62"/>
<path d="M62.732 21.1818C62.3701 22.2037 60.9339 23.0512 59.7883 23.2987C59.0045 23.4656 57.9808 23.5987 54.5345 22.17C50.1264 20.3437 47.2877 15.8643 47.0664 15.5737C46.8545 15.2831 45.2852 13.2018 45.2852 11.0493C45.2852 8.89684 46.3783 7.84872 46.8189 7.39872C47.1808 7.02935 47.7789 6.8606 48.3527 6.8606C48.5383 6.8606 48.7052 6.86997 48.8552 6.87747C49.2958 6.89622 49.517 6.92247 49.8077 7.6181C50.1695 8.48997 51.0508 10.6425 51.1558 10.8637C51.2627 11.085 51.3695 11.385 51.2195 11.6756C51.0789 11.9756 50.9552 12.1087 50.7339 12.3637C50.5127 12.6187 50.3027 12.8137 50.0814 13.0875C49.8789 13.3256 49.6502 13.5806 49.9052 14.0212C50.1602 14.4525 51.0414 15.8906 52.3389 17.0456C54.0133 18.5362 55.3708 19.0125 55.8564 19.215C56.2183 19.365 56.6495 19.3293 56.9139 19.0481C57.2495 18.6862 57.6639 18.0862 58.0858 17.4956C58.3858 17.0718 58.7645 17.0193 59.162 17.1693C59.567 17.31 61.7101 18.3693 62.1508 18.5887C62.5914 18.81 62.882 18.915 62.9889 19.1006C63.0939 19.2862 63.0939 20.1581 62.732 21.1818Z" fill="white"/>
</svg>
